<svg width="76" height="27" viewBox="0 0 76 27" fill="none" xmlns="http://www.w3.org/2000/svg">
<path d="M3.20733 9.88901H10.5941V12.3762H0.306458V15.7325H25.0087V12.3762H14.7211V9.88901H22.1079V0.479468H3.20733V9.88901ZM22.1079 27V17.6504H2.90827V21.0666H18.1005V27H22.1079ZM7.21471 3.83574H18.1005V6.53274H7.21471V3.83574Z" fill="#1487C8"/>
<path d="M40.8894 0.629302H36.7026V4.01554C36.7026 7.28191 32.6653 11.657 27.4318 13.8746L29.5252 16.8713C33.4429 15.0733 36.912 12.3163 38.796 9.28968C40.6801 12.3163 44.1492 15.0733 48.0669 16.8713L50.1603 13.8746C44.9267 11.657 40.8894 7.28191 40.8894 4.01554V0.629302ZM51.1472 24.273V20.8568H40.8595V15.1931H36.7325V20.8568H26.4449V24.273H51.1472Z" fill="#1487C8"/>
<path d="M75.5511 26.8502V0H71.5437V26.8502H75.5511ZM54.2581 9.79911V22.0855H60.9869C63.9476 22.0855 67.4765 21.9356 70.497 21.3962V18.0999C67.2372 18.6093 64.1868 18.6693 60.9869 18.6693H58.2655V13.1554H67.3569V1.22864H54.2581V4.64484H63.3495V9.79911H54.2581Z" fill="#1487C8"/>
</svg>
